<svg width="18" height="18" viewBox="0 0 18 18" fill="none" xmlns="http://www.w3.org/2000/svg">
<path d="M3 15H11C12.1046 15 13 14.1046 13 13V4C13 2.89543 12.1046 2 11 2H3C1.89543 2 1 2.89543 1 4V13C1 14.1046 1.89543 15 3 15Z" stroke="#D9FF82" stroke-width="2"/>
<path d="M9 17H15C16.1046 17 17 16.1046 17 15V8C17 6.89543 16.1046 6 15 6H9C7.89543 6 7 6.89543 7 8V15C7 16.1046 7.89543 17 9 17Z" fill="#2A2A2A" stroke="#D9FF82" stroke-width="2"/>
<path d="M11 10L13 10" stroke="#D9FF82" stroke-width="2" stroke-linecap="round"/>
<path d="M6 2L8 2" stroke="#D9FF82" stroke-width="4" stroke-linecap="round"/>
<path d="M11 13L13 13" stroke="#D9FF82" stroke-width="2" stroke-linecap="round"/>
</svg>
