<svg width="20" height="20" viewBox="0 0 20 20" fill="none" xmlns="http://www.w3.org/2000/svg">
<path d="M14 6V4C14 2.89543 13.1046 2 12 2H10M7 16H3C1.89543 16 1 15.1046 1 14V4C1 2.89543 1.89543 2 3 2H5" stroke="#D9FF82" stroke-width="2"/>
<path d="M10 19H17C18.1046 19 19 18.1046 19 17V9C19 7.89543 18.1046 7 17 7H10C8.89543 7 8 7.89543 8 9V17C8 18.1046 8.89543 19 10 19Z" stroke="#D9FF82" stroke-width="2"/>
<path d="M12 11L15 11" stroke="#D9FF82" stroke-width="2" stroke-linecap="round"/>
<path d="M12 15L15 15" stroke="#D9FF82" stroke-width="2" stroke-linecap="round"/>
<rect x="5" y="1" width="5" height="2" rx="1" stroke="#D9FF82" stroke-width="2"/>
</svg>
