<svg width="48" height="48" viewBox="0 0 48 48" fill="none" xmlns="http://www.w3.org/2000/svg">
<path d="M23.9988 39.5365L12.3651 46.5687C11.8511 46.8968 11.3138 47.0375 10.7532 46.9906C10.1925 46.9437 9.70191 46.7562 9.28142 46.428C8.86092 46.0998 8.53387 45.6901 8.30026 45.1988C8.06665 44.7075 8.01993 44.1561 8.16009 43.5448L11.2437 30.254L0.941565 21.3231C0.474346 20.9011 0.182802 20.4201 0.0669313 19.8801C-0.0489389 19.34 -0.0143649 18.813 0.170654 18.2992C0.355672 17.7854 0.636003 17.3635 1.01165 17.0334C1.38729 16.7034 1.90123 16.4924 2.55347 16.4005L16.1495 15.205L21.4057 2.68773C21.6394 2.12515 22.0019 1.70322 22.4934 1.42193C22.9849 1.14064 23.4867 1 23.9988 1C24.5109 1 25.0127 1.14064 25.5042 1.42193C25.9957 1.70322 26.3583 2.12515 26.5919 2.68773L31.8481 15.205L45.4441 16.4005C46.0982 16.4943 46.6122 16.7052 46.986 17.0334C47.3597 17.3616 47.6401 17.7835 47.827 18.2992C48.0138 18.8149 48.0493 19.3428 47.9335 19.8829C47.8176 20.4229 47.5251 20.903 47.056 21.3231L36.7539 30.254L39.8375 43.5448C39.9777 44.1543 39.931 44.7056 39.6974 45.1988C39.4637 45.692 39.1367 46.1017 38.7162 46.428C38.2957 46.7543 37.8051 46.9418 37.2445 46.9906C36.6838 47.0393 36.1465 46.8987 35.6325 46.5687L23.9988 39.5365Z" fill="white"/>
</svg>
